<?xml version="1.0" encoding="UTF-8"?>
<svg id="Layer_1" xmlns="http://www.w3.org/2000/svg" version="1.1" xmlns:xlink="http://www.w3.org/1999/xlink" viewBox="0 0 642.38 173.75">
  <!-- Generator: Adobe Illustrator 29.5.1, SVG Export Plug-In . SVG Version: 2.1.0 Build 141)  -->
  <defs>
    <linearGradient id="New_Gradient_Swatch_1" data-name="New Gradient Swatch 1" x1="36.1" y1="91.38" x2="214.4" y2="91.38" gradientUnits="userSpaceOnUse">
      <stop offset="0" stop-color="#29bb9c"/>
      <stop offset="1" stop-color="#0b3f32"/>
    </linearGradient>
    <linearGradient id="New_Gradient_Swatch_11" data-name="New Gradient Swatch 1" x1="91.4" y1="91.38" x2="277.04" y2="91.38" xlink:href="#New_Gradient_Swatch_1"/>
    <clipPath id="clippath">
      <rect x="-3" width="645.26" height="179.25" fill="none"/>
    </clipPath>
    <linearGradient id="New_Gradient_Swatch_12" data-name="New Gradient Swatch 1" x1="268.88" y1="392.58" x2="411.8" y2="392.58" xlink:href="#New_Gradient_Swatch_1"/>
  </defs>
  <polygon points="122.49 34.85 64.54 119.85 64.21 70.7 36.1 70.9 36.1 148.16 78.41 147.88 158.21 34.61 122.49 34.85" fill="url(#New_Gradient_Swatch_1)"/>
  <polygon points="123.75 147.88 91.4 148.16 167.84 34.85 203.56 34.61 123.75 147.88" fill="url(#New_Gradient_Swatch_11)"/>
  <g clip-path="url(#clippath)">
    <g>
      <path d="M239.06,34.76l30.13,62.78h-11.8l-27.37-58.59h4.27l-27.37,58.59h-11.8l30.13-62.78h13.81ZM209.93,83.14v-9.12h43.86v9.12h-43.86Z" fill="#06c6a1"/>
      <path d="M286.44,34.76v57.84l-4.94-4.77h47.29v9.71h-53.41v-62.78h11.05Z" fill="#06c6a1"/>
      <path d="M333.65,63.64h19.5v8.96h-19.5v-8.96Z" fill="#06c6a1"/>
      <path d="M371.4,63.05h25.53c3.68,0,6.6-.84,8.75-2.51,2.15-1.67,3.22-3.96,3.22-6.86s-1.08-5.26-3.22-6.91c-2.15-1.65-5.06-2.47-8.75-2.47h-27.12l4.94-6.19v59.43h-11.05v-62.78h34.24c4.41,0,8.27.8,11.59,2.39,3.32,1.59,5.91,3.8,7.79,6.61,1.87,2.82,2.8,6.12,2.8,9.92s-.94,6.93-2.8,9.75c-1.87,2.82-4.47,5.02-7.79,6.61-3.32,1.59-7.19,2.39-11.59,2.39h-26.54v-9.38ZM383.79,68.16h12.97l24.94,29.38h-13.23l-24.69-29.38Z" fill="#06c6a1"/>
      <path d="M467.66,34.76l30.13,62.78h-11.8l-27.37-58.59h4.27l-27.37,58.59h-11.8l30.13-62.78h13.81ZM438.53,83.14v-9.12h43.86v9.12h-43.86Z" fill="#06c6a1"/>
      <path d="M530.27,34.76l30.13,62.78h-11.8l-27.37-58.59h4.27l-27.37,58.59h-11.8l30.13-62.78h13.81ZM501.14,83.14v-9.12h43.86v9.12h-43.86Z" fill="#06c6a1"/>
      <path d="M549.69,34.76h12.47l25.62,32.14h-5.94l25.62-32.14h12.47l-31.56,39.59-7.03.08-31.64-39.68ZM579.32,97.54v-29.97h11.05v29.97h-11.05Z" fill="#06c6a1"/>
    </g>
    <g>
      <path d="M199.61,137.08h3.11c.3,2.25,1.15,4.23,2.58,5.93,1.42,1.7,3.31,3.01,5.66,3.94,2.35.92,5.04,1.39,8.07,1.39,4.58,0,8.24-.84,10.98-2.52,2.74-1.68,4.1-3.98,4.1-6.9,0-2.14-.9-3.81-2.69-4.99-1.79-1.18-4.87-2.02-9.23-2.5l-7.04-.78c-5.14-.55-8.79-1.74-10.95-3.55-2.16-1.81-3.24-4.14-3.24-6.99,0-2.44.72-4.55,2.16-6.32,1.44-1.78,3.44-3.14,5.99-4.1,2.55-.96,5.51-1.44,8.87-1.44s6.55.54,9.23,1.61c2.68,1.07,4.81,2.57,6.38,4.49,1.57,1.92,2.43,4.16,2.58,6.71h-3.11c-.22-2.03-1-3.79-2.33-5.27-1.33-1.48-3.09-2.63-5.27-3.47-2.18-.83-4.7-1.25-7.54-1.25-4.21,0-7.58.79-10.09,2.38-2.51,1.59-3.77,3.81-3.77,6.66,0,2.22.9,3.92,2.69,5.1,1.79,1.18,4.78,2.02,8.96,2.5l6.71.78c3.55.41,6.41,1.02,8.6,1.83,2.18.81,3.76,1.91,4.74,3.3.98,1.39,1.47,3.12,1.47,5.19,0,2.59-.76,4.81-2.27,6.66-1.52,1.85-3.64,3.26-6.38,4.24-2.74.98-5.93,1.47-9.59,1.47s-6.86-.59-9.71-1.77c-2.85-1.18-5.12-2.84-6.82-4.96-1.7-2.12-2.64-4.58-2.83-7.35Z" fill="#06c6a1"/>
      <path d="M291.12,108.9h40.15v2.77h-40.15v-2.77ZM309.65,110.57h3.11v39.93h-3.11v-39.93Z" fill="#06c6a1"/>
      <path d="M408.36,151.16c-4.51,0-8.49-.91-11.95-2.72-3.46-1.81-6.15-4.33-8.07-7.57-1.92-3.24-2.88-6.98-2.88-11.23s.96-7.93,2.88-11.15c1.92-3.22,4.61-5.73,8.07-7.54,3.46-1.81,7.46-2.72,12.01-2.72s8.49.91,11.92,2.72c3.44,1.81,6.12,4.33,8.04,7.54,1.92,3.22,2.88,6.93,2.88,11.15s-.96,8-2.88,11.23c-1.92,3.24-4.6,5.76-8.04,7.57s-7.43,2.72-11.98,2.72ZM408.36,148.28c3.99,0,7.47-.77,10.43-2.3,2.96-1.53,5.24-3.7,6.85-6.49,1.61-2.79,2.41-6.07,2.41-9.84s-.8-6.99-2.41-9.76c-1.61-2.77-3.89-4.93-6.85-6.46-2.96-1.53-6.43-2.3-10.43-2.3s-7.46.77-10.4,2.3c-2.94,1.54-5.22,3.69-6.85,6.46-1.63,2.77-2.44,6.04-2.44,9.82s.81,7,2.44,9.79c1.63,2.79,3.91,4.96,6.85,6.49s6.41,2.3,10.4,2.3Z" fill="#06c6a1"/>
      <path d="M492.27,129.42h18.75c3.07,0,5.53-.8,7.38-2.41,1.85-1.61,2.77-3.76,2.77-6.46s-.92-4.85-2.77-6.46c-1.85-1.61-4.31-2.41-7.38-2.41h-19.19l1.39-1.39v40.21h-3.11v-41.59h20.63c2.7,0,5.06.49,7.07,1.47,2.02.98,3.6,2.35,4.74,4.1,1.15,1.76,1.72,3.78,1.72,6.07s-.57,4.32-1.72,6.07c-1.15,1.76-2.73,3.12-4.74,4.1-2.02.98-4.37,1.47-7.07,1.47h-18.47v-2.77ZM502.48,131.03h4.21l18.25,19.47h-4.22l-18.25-19.47Z" fill="#06c6a1"/>
      <path d="M588.16,129.7l-3.44,20.52-2-2.5h32.72v2.77h-33.83l3.49-20.8-3.49-20.8h33.55v2.77h-32.44l2-2.44,3.44,20.46ZM614.06,128.31v2.77h-27.67v-2.77h27.67Z" fill="#06c6a1"/>
    </g>
  </g>
  <polygon points="369.99 326.41 302.17 425.9 301.78 368.38 268.88 368.6 268.88 459.03 318.4 458.7 411.8 326.13 369.99 326.41" display="none" fill="url(#New_Gradient_Swatch_12)"/>
</svg>