<svg xmlns="http://www.w3.org/2000/svg" viewBox="0 0 512 512">
  <defs>
    <linearGradient id="g1" x1="0%" y1="0%" x2="100%" y2="100%">
      <stop offset="0%" stop-color="#29bb9c"/>
      <stop offset="100%" stop-color="#0b3f32"/>
    </linearGradient>
  </defs>
  <path fill="url(#g1)" d="M256 48C141.1 48 48 141.1 48 256v40c0 13.3-10.7 24-24 24s-24-10.7-24-24V256C0 114.6 114.6 0 256 0S512 114.6 512 256v40c0 13.3-10.7 24-24 24s-24-10.7-24-24V256C464 141.1 370.9 48 256 48zM80 352V272c0-17.7 14.3-32 32-32h16c17.7 0 32 14.3 32 32v80c0 17.7-14.3 32-32 32h-16c-17.7 0-32-14.3-32-32zm272-80c0-17.7 14.3-32 32-32h16c17.7 0 32 14.3 32 32v80c0 17.7-14.3 32-32 32h-16c-17.7 0-32-14.3-32-32V272zm-80 160h-32c-13.3 0-24 10.7-24 24s10.7 24 24 24h32c30.9 0 56-25.1 56-56v-8h-8c-26.5 0-48 21.5-48 48v-32z"/>
  <circle fill="url(#g1)" cx="192" cy="336" r="8"/>
  <circle fill="url(#g1)" cx="256" cy="336" r="8"/>
  <circle fill="url(#g1)" cx="320" cy="336" r="8"/>
</svg>
