<?xml version="1.0" encoding="UTF-8"?>
<svg id="Layer_1" xmlns="http://www.w3.org/2000/svg" version="1.1" xmlns:xlink="http://www.w3.org/1999/xlink" viewBox="0 0 2050 1000">
  <!-- Generator: Adobe Illustrator 29.5.1, SVG Export Plug-In . SVG Version: 2.1.0 Build 141)  -->
  <defs>
    <linearGradient id="linear-gradient" x1="1632.94" y1="574.08" x2="593.28" y2="579.18" gradientUnits="userSpaceOnUse">
      <stop offset="0" stop-color="#12d6df"/>
      <stop offset="1" stop-color="#f70fff"/>
    </linearGradient>
    <linearGradient id="linear-gradient1" x1="1632.95" y1="574.44" x2="593.29" y2="579.54" xlink:href="#linear-gradient"/>
    <linearGradient id="linear-gradient2" x1="1632.95" y1="574.69" x2="593.29" y2="579.8" xlink:href="#linear-gradient"/>
    <linearGradient id="linear-gradient3" x1="1632.95" y1="575.11" x2="593.29" y2="580.22" xlink:href="#linear-gradient"/>
    <linearGradient id="linear-gradient4" x1="1632.95" y1="575.64" x2="593.29" y2="580.74" xlink:href="#linear-gradient"/>
    <linearGradient id="linear-gradient5" x1="1632.95" y1="576.04" x2="593.29" y2="581.14" xlink:href="#linear-gradient"/>
    <linearGradient id="linear-gradient6" x1="1632.95" y1="576.3" x2="593.29" y2="581.41" xlink:href="#linear-gradient"/>
    <linearGradient id="linear-gradient7" x1="1632.96" y1="576.81" x2="593.3" y2="581.91" xlink:href="#linear-gradient"/>
    <linearGradient id="linear-gradient8" x1="1632.96" y1="577.1" x2="593.3" y2="582.21" xlink:href="#linear-gradient"/>
    <linearGradient id="linear-gradient9" x1="1632.47" y1="478.22" x2="592.81" y2="483.33" xlink:href="#linear-gradient"/>
    <linearGradient id="linear-gradient10" x1="1632.47" y1="478.65" x2="592.82" y2="483.75" xlink:href="#linear-gradient"/>
    <linearGradient id="linear-gradient11" x1="1632.48" y1="479.17" x2="592.82" y2="484.28" xlink:href="#linear-gradient"/>
    <linearGradient id="linear-gradient12" x1="1632.48" y1="479.35" x2="592.82" y2="484.45" xlink:href="#linear-gradient"/>
    <linearGradient id="linear-gradient13" x1="1632.48" y1="480" x2="592.82" y2="485.11" xlink:href="#linear-gradient"/>
    <linearGradient id="linear-gradient14" x1="1632.48" y1="480.59" x2="592.82" y2="485.7" xlink:href="#linear-gradient"/>
    <linearGradient id="linear-gradient15" x1="1632.49" y1="481.06" x2="592.83" y2="486.16" xlink:href="#linear-gradient"/>
    <linearGradient id="linear-gradient16" x1="1632.56" y1="495.84" x2="592.9" y2="500.95" xlink:href="#linear-gradient"/>
    <linearGradient id="linear-gradient17" x1="1632.2" y1="422.22" x2="592.54" y2="427.33" xlink:href="#linear-gradient"/>
    <linearGradient id="linear-gradient18" x1="1632.81" y1="546.82" x2="593.15" y2="551.92" xlink:href="#linear-gradient"/>
    <linearGradient id="linear-gradient19" x1="1632.37" y1="457.12" x2="592.71" y2="462.22" xlink:href="#linear-gradient"/>
    <linearGradient id="linear-gradient20" x1="1632.92" y1="569.1" x2="593.26" y2="574.2" xlink:href="#linear-gradient"/>
    <linearGradient id="linear-gradient21" x1="1632.07" y1="386.33" x2="592.41" y2="391.43" xlink:href="#linear-gradient"/>
    <linearGradient id="linear-gradient22" x1="1632.46" y1="475.01" x2="592.8" y2="480.12" xlink:href="#linear-gradient"/>
    <linearGradient id="linear-gradient23" x1="1632.41" y1="465.8" x2="592.75" y2="470.91" xlink:href="#linear-gradient"/>
    <linearGradient id="linear-gradient24" x1="1632.81" y1="547.03" x2="593.15" y2="552.14" xlink:href="#linear-gradient"/>
    <linearGradient id="linear-gradient25" x1="1633.12" y1="609.85" x2="593.46" y2="614.95" xlink:href="#linear-gradient"/>
    <linearGradient id="linear-gradient26" x1="1632.56" y1="496.98" x2="592.91" y2="502.09" xlink:href="#linear-gradient"/>
    <linearGradient id="linear-gradient27" x1="1632.14" y1="410.26" x2="592.48" y2="415.37" xlink:href="#linear-gradient"/>
    <linearGradient id="linear-gradient28" x1="1632.11" y1="404.59" x2="592.45" y2="409.69" xlink:href="#linear-gradient"/>
    <linearGradient id="linear-gradient29" x1="545.6" y1="427.8" x2="545.6" y2="427.8" xlink:href="#linear-gradient"/>
    <linearGradient id="linear-gradient30" x1="2171.29" y1="372.87" x2="2496.71" y2="47.45" gradientUnits="userSpaceOnUse">
      <stop offset="0" stop-color="#12d6df"/>
      <stop offset=".11" stop-color="#34b8e3"/>
      <stop offset=".35" stop-color="#787ced"/>
      <stop offset=".57" stop-color="#af4df4"/>
      <stop offset=".76" stop-color="#d62bfa"/>
      <stop offset=".91" stop-color="#ee16fd"/>
      <stop offset="1" stop-color="#f70fff"/>
    </linearGradient>
  </defs>
  <g>
    <g>
      <g>
        <path d="M949,565.7h-9v-2.9h21.2v2.9h-8.9v26.4h-3.3v-26.4h0Z" fill="url(#linear-gradient)"/>
        <path d="M1013.5,565.7v10.1h12.1v2.8h-12.1v10.6h14.5v2.9h-17.8v-29.3h17.8v2.9h-14.5Z" fill="url(#linear-gradient1)"/>
        <path d="M1081.5,590.9c-1.6-1.1-2.7-2.7-3.3-4.8-.6-2.1-.9-5-.9-8.6s.3-6.3.9-8.5c.6-2.1,1.7-3.8,3.3-5s3.8-1.7,6.8-1.7c2.3,0,5,.3,7.9.9l-.1,2.7c-2.8-.5-5.3-.8-7.3-.8-2.3,0-3.8.5-5,1.2-1.1.8-1.9,2-2.3,3.8-.5,1.8-.6,4.3-.6,7.7,0,2.9.2,5.2.6,6.8.3,1.6,1.1,2.8,2.4,3.7,1.2.8,2.9,1.2,5.4,1.2,1.9,0,4.3-.2,7-.8l.1,2.8c-2.9.6-5.5.9-7.8.9-3.2.2-5.6-.4-7.1-1.5Z" fill="url(#linear-gradient2)"/>
        <path d="M1167.8,562.8v29.3h-3.3v-13.3h-14.9v13.3h-3.3v-29.3h3.3v13.2h14.9v-13.2h3.3Z" fill="url(#linear-gradient3)"/>
        <path d="M1274.6,591.8l-1.6-.2.3-2.7c3.8.5,6.8.8,8.8.8,4.2,0,6.3-1.9,6.3-5.9,0-1.1-.2-1.9-.6-2.6-.3-.7-1-1.1-1.9-1.6s-2.3-.8-4.1-1.1c-2.4-.5-4.2-1-5.4-1.7-1.2-.7-2.3-1.5-2.8-2.5s-.9-2.5-.9-4.2c0-5.3,3.2-7.9,9.5-7.9,2.1,0,5.2.3,8.9.9l-.3,2.7c-4.1-.5-6.9-.7-8.3-.7-4.3,0-6.3,1.6-6.3,4.8,0,1.2.2,2.1.6,2.8.5.7,1.1,1.1,2.1,1.6s2.6.8,4.7,1.4c2.1.5,3.7,1,4.8,1.6s2,1.4,2.5,2.4c.6,1,.8,2.3.8,3.8,0,6-3.2,9-9.4,9-2,.1-4.6-.2-7.7-.7Z" fill="url(#linear-gradient4)"/>
        <path d="M1348.3,565.7h-9v-2.9h21.2v2.9h-8.9v26.4h-3.3v-26.4h0Z" fill="url(#linear-gradient5)"/>
        <path d="M1412.2,591c-1.7-1-2.9-2.7-3.6-4.8s-1.1-5.1-1.1-8.6.3-6.4,1.1-8.7c.8-2.3,1.9-3.8,3.6-5,1.7-1.1,3.9-1.7,6.9-1.7,2.8,0,5.2.6,6.9,1.7,1.7,1.1,2.9,2.7,3.7,5,.8,2.3,1.1,5.1,1.1,8.7s-.3,6.4-1.1,8.6c-.7,2.1-1.9,3.7-3.6,4.7s-3.9,1.6-6.9,1.6c-2.9.1-5.2-.4-7-1.5ZM1424.2,588.5c1.1-.8,2-2,2.5-3.7s.7-4.1.7-7.1-.2-5.4-.8-7.2c-.5-1.8-1.4-3.2-2.5-3.9-1.2-.9-2.8-1.4-5-1.4s-3.7.5-5,1.2c-1.2.9-2,2.1-2.5,3.9s-.8,4.2-.8,7.1.2,5.3.7,7.1c.5,1.7,1.4,3,2.5,3.8,1.2.8,2.9,1.2,5.1,1.2,2.3.2,3.9-.2,5.1-1Z" fill="url(#linear-gradient6)"/>
        <path d="M1481.8,562.8h10.8c3.2,0,5.5.7,7,2.1,1.6,1.5,2.4,3.7,2.4,6.8,0,4.5-1.8,7.4-5.4,8.6l5.6,11.9h-3.6l-5.3-11.3h-8.3v11.3h-3.2v-29.4ZM1492.6,578c3.9,0,6-2,6-6.2s-2-6.2-6-6.2h-7.6v12.4h7.6Z" fill="url(#linear-gradient7)"/>
        <path d="M1556.1,565.7v10.1h12.1v2.8h-12.1v10.6h14.5v2.9h-17.8v-29.3h17.8v2.9h-14.5Z" fill="url(#linear-gradient8)"/>
      </g>
      <g>
        <path d="M937.5,520.7l-5.5,15.7h-31.5l39.2-109.9h31.5l39.3,109.9h-31.5l-5.5-15.7h-36ZM966.1,489.3l-10.6-31.5-10.4,31.5h21Z" fill="url(#linear-gradient9)"/>
        <path d="M1018.3,426.5h31.5v78.6h55v31.3h-86.4l-.1-109.9h0Z" fill="url(#linear-gradient10)"/>
        <path d="M1183.9,426.5v109.9h-31.5v-109.9h31.5Z" fill="url(#linear-gradient11)"/>
        <path d="M1258.2,457.8v78.6h-31.5v-78.6h-35.1v-31.5h102.1v31.5h-35.5Z" fill="url(#linear-gradient12)"/>
        <path d="M1341,489.3l-39.2-62.8h33.5l21.4,31.5,21.4-31.5h33.5l-39.2,62.8v47.1h-31.5l.1-47.1h0Z" fill="url(#linear-gradient13)"/>
        <path d="M1420.7,520.7l-5.5,15.7h-31.5l39.2-109.9h31.5l39.2,109.9h-31.5l-5.5-15.7h-35.9ZM1449.3,489.3l-10.6-31.5-10.4,31.5h21Z" fill="url(#linear-gradient14)"/>
        <path d="M1533,481.4v55h-31.5v-109.9h31.5l39.2,55v-55h31.5v109.9h-31.5l-39.2-55Z" fill="url(#linear-gradient15)"/>
      </g>
    </g>
    <g>
      <path d="M825.7,465.9c-.7-.9-1.7-1.6-2.7-2.1.8-29.6-23.3-51.1-49.3-48.7-8.7-31.5-39.3-45.3-65.1-41.3v.8c-1.7-.3-3.6-.5-5.6-.5-6.6,0-16.1,1.7-24.8,5.7-9.2,4.3-17.7,11.2-21.5,21.5-1.3,3.6-2,7.4-2,11.7v213.9h194.4c7.8-20.6,7-43.9-.3-64.2,19.7-39.9,7.4-79.3-23.1-96.8ZM671.6,413c0-2.2.4-4.2,1-5.9,2-5.5,7.1-9.4,12.7-12,1.8-.8,3.7-1.5,5.5-2.1-1,1.8-1.8,3.7-2.5,5.6-4.5,12-4.3,26.7-.3,38.4,2,5.9,1.8,10.8.3,14.5-.8,1.8-1.8,3.3-3.1,4.5s-2.7,2-4.3,2.6c-2.4.8-5.1.8-7.6-.2-.6-.3-1.3-.4-1.9-.6l.2-44.8h0ZM671.6,512.5h3.5c26.9,13.4,20.6,45.5,20.6,45.5-.8,4.5,2.2,8.7,6.6,9.6,4.5.8,8.7-2.2,9.6-6.6,0-.1,6.8-34.1-16.9-55.1,1-.4,2-.8,2.9-1.2,11.1-4.9,19.8-12.9,22.7-20.9,1.5-4.3-.6-9-4.9-10.5-4.3-1.5-9,.6-10.5,4.9-1.4,3.9-6.7,8.3-13.9,11.5-4.8,2.2-10.4,3.6-16,3.8h-3.5v-18.5c5,1.1,10.1.8,14.8-.9,3.7-1.3,7.1-3.4,10.1-6.1,2.9-2.7,5.3-6.1,7-10.1,3.1-7.2,3.6-16.2.1-26.2-2.9-8.3-3-18.8.2-27.4,1.1-3.1,2.7-5.9,4.7-8.1,1.8-2,4.1-3.6,6.7-4.6,4.5-1.6,10.6-1.4,18.3,1.5.7.3,1.4.4,2.2.4,7.1,3.2,13.4,8.4,17.7,15.5,1.9,3.2,3.4,6.7,4.5,10.4l3.6,13.2,13.6-1.2c1.1-.1,2.2-.1,3.4-.1,6.9.3,13.5,3.2,18.5,8s8.5,11.5,9.4,19.3c-11-1.9-20.7-.4-28.8,3.2-2.4,1.1-4.7,2.4-6.8,3.8-3.9,1.6-7.7,1.5-10.9.3-1.6-.6-3-1.4-4.2-2.4-1.1-1-2-2-2.5-3.1-.7-1.5-.9-3.2-.3-4.9,1.5-4.3-.6-9-4.9-10.5-4.3-1.5-9,.6-10.5,4.9-2.2,6.2-1.7,12.3,1,17.6,1.5,3.2,3.8,6.1,6.6,8.5,2.6,2.3,5.8,4.1,9.4,5.4.7.3,1.4.5,2.1.7-.5,1-1,1.9-1.4,2.9-4.7,10.8-5.1,23.1-.4,33.4,1.8,4.1,6.7,6,10.9,4.1s6-6.7,4.1-10.9c-2.7-6-2.4-13.4.6-20.1,1.3-3.1,3.2-6,5.7-8.5,1-1,2.1-2,3.2-2.9l.4-.2c.9-.4,1.7-1,2.3-1.7.8-.5,1.7-1,2.7-1.4,6.9-3.1,15.9-3.8,26.7-.1l4.4,2.2c12.4,6.4,21.1,17.4,24.6,30.8s1.8,29.2-6.2,45.5l-3.1,6.2,2.4,6.6.2.5c4.9,13.8,6.2,29.2,2.9,43.6h-98.5c-.7-3.8-.7-7.8-.1-11.7,1-5.6,3.2-11,6.7-15.2,5.8-6.9,15.5-10.5,28.8-6,20.4,6.7,34.5,2,43.2-7.6,5-5.6,8-12.8,9.1-20.3,1.1-7.2.4-14.8-1.7-21.6-4.1-13.1-13.6-23.2-27.3-23.2-4.5,0-8.2,3.7-8.2,8.2s3.7,8.2,8.2,8.2c5.5,0,9.6,5.1,11.7,11.6,1.4,4.5,1.8,9.5,1.1,14.3-.6,4.5-2.3,8.7-5.1,11.7-4.6,5-12.9,7.3-25.8,2.9-20.9-6.9-36.7-.6-46.5,11.1-5.4,6.5-8.9,14.6-10.3,23.1-.8,4.8-.9,9.6-.3,14.4h-14.9c2.5-10.5,2.4-20.4-6-28.9-3.6-3.6-8-6.2-12.8-7.6-5.1-1.5-10.6-1.8-16-.6l-.5-62.4h0ZM682.9,591.4c2.2.6,4.3,1.8,5.9,3.4,3.1,3.1,2.7,9.6.8,17.4h-18v-19.9c3.6-1.8,7.7-2,11.3-.9Z" fill="url(#linear-gradient16)"/>
      <path d="M518.3,409.9c-17.1,13.1-32.8,26.3-43.7,35.8,5.3-20.8,23.4-35.3,43.7-35.8Z" fill="url(#linear-gradient17)" fill-rule="evenodd"/>
      <path d="M458.5,585.9c-3,0-5.7-1.9-6.7-4.8-1.2-3.7.8-7.7,4.5-8.9.4-.1,29.3-10.3,68.1-51.1,2.7-2.8,7.1-2.9,10-.3,2.8,2.7,2.9,7.1.3,10-41.6,43.8-72.6,54.4-73.9,54.8-.9.2-1.6.3-2.3.3Z" fill="url(#linear-gradient18)" fill-rule="evenodd"/>
      <path d="M547.6,426.5c-9.8,7.4-19.9,16.1-30.6,26.2-29.6,28.3-58.5,54.1-58.8,54.4-1.3,1.2-3.1,1.8-4.7,1.8-1.9,0-3.9-.8-5.3-2.4-2.6-2.9-2.4-7.4.6-10,.3-.3,29-25.9,58.4-54.1,10.3-9.9,20.2-18.5,29.9-25.9" fill="url(#linear-gradient19)" fill-rule="evenodd"/>
      <path d="M608.1,533.6c-1,1.5-25.9,38.3-62.5,66.9-10.1,7.8-25.4,17.4-39.2,25.6h-28.4c15-8.4,43.9-25,59-36.7,34.8-27.2,59.2-63.2,59.5-63.6,2.2-3.2,6.6-4.1,9.8-1.9,3.1,2.1,4,6.5,1.8,9.7Z" fill="url(#linear-gradient20)" fill-rule="evenodd"/>
      <path d="M641.2,392.7c-18.1-1.4-36.6,2.3-56,11-3.6,1.6-7.8.1-9.4-3.5-1.6-3.6-.1-7.8,3.5-9.4,16.6-7.5,33-11.7,49.1-12.4,5.2,3.7,9.8,8.3,12.8,14.3Z" fill="url(#linear-gradient21)" fill-rule="evenodd"/>
      <path d="M614.7,426.1c-21.5,5.5-44.5,21.3-68.8,47.5-38.4,41.2-86.5,73.7-88.4,75.1-1.2.8-2.6,1.2-3.9,1.2-2.3,0-4.5-1.1-5.9-3.1-2.2-3.2-1.3-7.6,1.9-9.8.5-.3,48.8-33.1,86-73.1,28.6-30.8,56.2-48.5,82.3-53" fill="url(#linear-gradient22)" fill-rule="evenodd"/>
      <path d="M551.7,490.8c30.8-33.5,59.2-59,93-47.5v15.2c-26.6-12.2-48.9,5.6-81.3,40.5-.7.8-1.4,1.5-2.2,2.3" fill="url(#linear-gradient23)" fill-rule="evenodd"/>
      <path d="M644.7,490.6v97.4c-9.2,13.5-19.9,26.5-32,38h-78.7c11.9-8.7,24.7-18.5,37.2-28.8,32.5-26.7,62.1-71.6,62.1-94.2,0-3.7-.8-6.2-2.5-7.6-11.6-9.5-31.5,7-46.2,22.5-3.8,4-7.8,8.9-12.5,14.6-12.3,15-27.6,33.6-48.6,48.5-22.9,16.3-56,32.7-57.4,33.4-3.5,1.7-7.8.3-9.5-3.2s-.3-7.8,3.2-9.5c.3-.2,33.5-16.6,55.5-32.3,19.5-13.8,34.1-31.6,45.9-46,4.6-5.7,9.1-11.1,13.1-15.4,27.3-29,49.3-37,65.5-23.8,1.6,1.7,3.5,3.6,4.9,6.4Z" fill="url(#linear-gradient24)" fill-rule="evenodd"/>
      <path d="M644.7,603.4v22.6h-17.9c0,.1,13.8-14.4,17.9-22.6Z" fill="url(#linear-gradient25)" fill-rule="evenodd"/>
      <path d="M549.6,522.5c-11.1,0-20.2-9-20.2-20.2s9-20.2,20.2-20.2,20.2,9,20.2,20.2-9.1,20.2-20.2,20.2ZM549.6,496.3c-3.3,0-6,2.7-6,6s2.7,6,6,6,6-2.7,6-6-2.7-6-6-6Z" fill="url(#linear-gradient26)"/>
      <path d="M626.8,435.4c-11.1,0-20.2-9-20.2-20.2s9-20.2,20.2-20.2,20.2,9,20.2,20.2-9.1,20.2-20.2,20.2ZM626.8,409.2c-3.3,0-6,2.7-6,6s2.7,6,6,6,6-2.7,6-6-2.7-6-6-6Z" fill="url(#linear-gradient27)"/>
      <path d="M550.3,430.1c-11.1,0-20.2-9-20.2-20.2s9-20.2,20.2-20.2,20.2,9,20.2,20.2-9.1,20.2-20.2,20.2ZM550.3,403.9c-3.3,0-6,2.7-6,6s2.7,6,6,6,6-2.7,6-6-2.7-6-6-6Z" fill="url(#linear-gradient28)"/>
      <path d="M545.6,427.8" fill="url(#linear-gradient29)" fill-rule="evenodd"/>
    </g>
  </g>
  <rect x="2157.59" y="33.74" width="352.83" height="352.83" rx="46.78" ry="46.78" fill="url(#linear-gradient30)"/>
</svg>